# xmcd
#
# Track frame offsets: 
#        150
#        15918
#        26947
#
# Disc length: 526 seconds
#
# Revision: 0
# Processed by: cddbd v1.4PL0 Copyright (c) Steve Scherf et al.
# Submitted via: ExactAudioCopy v0.95a3
#
DISCID=18020c03
DTITLE=Gary Chase - Grandma Got Run Over By A Reindeer
DYEAR=2000
DGENRE=Novelty
TTITLE0=Grandma Got Run Over By A Reindeer
TTITLE1=Grandma's Killer Fruitcake
TTITLE2=Feels Like Christmas
EXTD=
EXTT0=
EXTT1=
EXTT2=
PLAYORDER=
